<svg width="474" height="519" viewBox="0 0 474 519" fill="none" xmlns="http://www.w3.org/2000/svg">
<path d="M322.037 187.898L188.15 444.708V518.41H134.477V444.708L0 187.898H59.571L159.741 360.485L262.466 187.898H322.037Z" fill="white"/>
<path d="M160.032 26.9137L320.064 160.032L238.456 160.032L209.273 211.566L160.032 297.737L86.1712 160.032L2.24065e-05 160.032L160.032 26.9137Z" fill="#2528F4"/>
<path d="M159.236 81.2748L239.375 147.937L198.508 147.937L183.894 173.744L159.236 216.896L122.248 147.937L79.096 147.937L159.236 81.2748Z" fill="#7ED4AD"/>
<path d="M244.9 515.5C242.967 515.5 241.3 515.117 239.9 514.35C238.5 513.55 237.367 512.533 236.5 511.3L237 509.85V515H231.95V476.15H237V498.7L236.85 496.85C237.683 495.783 238.85 494.917 240.35 494.25C241.883 493.583 243.617 493.25 245.55 493.25C247.417 493.25 249.117 493.7 250.65 494.6C252.183 495.467 253.417 496.717 254.35 498.35C255.283 499.983 255.75 501.933 255.75 504.2C255.75 506.567 255.233 508.6 254.2 510.3C253.2 511.967 251.883 513.25 250.25 514.15C248.617 515.05 246.833 515.5 244.9 515.5ZM243.8 511.25C245.1 511.25 246.267 510.95 247.3 510.35C248.333 509.717 249.133 508.867 249.7 507.8C250.3 506.733 250.6 505.533 250.6 504.2C250.6 502.867 250.3 501.683 249.7 500.65C249.1 499.617 248.283 498.8 247.25 498.2C246.25 497.567 245.1 497.25 243.8 497.25C242.133 497.25 240.683 497.683 239.45 498.55C238.217 499.417 237.4 500.567 237 502V506.4C237.433 507.8 238.233 508.967 239.4 509.9C240.6 510.8 242.067 511.25 243.8 511.25ZM271.633 515.5C269.233 515.5 267.166 515.033 265.433 514.1C263.699 513.133 262.366 511.817 261.433 510.15C260.499 508.45 260.033 506.533 260.033 504.4C260.033 502.333 260.549 500.467 261.583 498.8C262.649 497.1 264.066 495.75 265.833 494.75C267.599 493.75 269.566 493.25 271.733 493.25C274.533 493.25 276.849 494.067 278.683 495.7C280.549 497.3 281.799 499.567 282.433 502.5L265.383 508.4L264.183 505.5L277.883 500.5L276.833 501.2C276.433 500.133 275.799 499.217 274.933 498.45C274.066 497.65 272.883 497.25 271.383 497.25C269.516 497.25 267.983 497.9 266.783 499.2C265.616 500.467 265.033 502.1 265.033 504.1C265.033 506.233 265.666 507.95 266.933 509.25C268.199 510.55 269.799 511.2 271.733 511.2C272.633 511.2 273.499 511.05 274.333 510.75C275.166 510.417 275.949 509.983 276.683 509.45L278.983 513.2C277.916 513.9 276.733 514.467 275.433 514.9C274.166 515.3 272.899 515.5 271.633 515.5ZM305.346 503.05L291.946 478.75H298.396L308.946 498.55L307.296 498.65L317.746 478.75H324.146L310.596 503.05V515H305.346V503.05ZM322.24 504.35C322.24 502.25 322.74 500.367 323.74 498.7C324.74 497 326.123 495.667 327.89 494.7C329.657 493.733 331.673 493.25 333.94 493.25C336.24 493.25 338.24 493.733 339.94 494.7C341.673 495.667 343.007 497 343.94 498.7C344.907 500.367 345.39 502.25 345.39 504.35C345.39 506.45 344.907 508.35 343.94 510.05C342.973 511.717 341.623 513.05 339.89 514.05C338.19 515.017 336.173 515.5 333.84 515.5C331.64 515.5 329.657 515.05 327.89 514.15C326.157 513.25 324.773 511.967 323.74 510.3C322.74 508.6 322.24 506.617 322.24 504.35ZM327.34 504.4C327.34 505.7 327.623 506.883 328.19 507.95C328.757 508.983 329.523 509.817 330.49 510.45C331.49 511.05 332.59 511.35 333.79 511.35C335.69 511.35 337.24 510.683 338.44 509.35C339.673 508.017 340.29 506.367 340.29 504.4C340.29 502.433 339.673 500.783 338.44 499.45C337.24 498.083 335.69 497.4 333.79 497.4C332.557 497.4 331.457 497.717 330.49 498.35C329.523 498.983 328.757 499.833 328.19 500.9C327.623 501.967 327.34 503.133 327.34 504.4ZM358.181 515.85C356.248 515.85 354.665 515.267 353.431 514.1C352.198 512.933 351.548 511.433 351.481 509.6V494.1H356.531V507.8C356.598 508.9 356.915 509.783 357.481 510.45C358.048 511.117 358.948 511.483 360.181 511.55C361.315 511.55 362.331 511.217 363.231 510.55C364.131 509.85 364.831 508.9 365.331 507.7C365.865 506.5 366.131 505.15 366.131 503.65V494.1H371.181V515H366.631L366.231 510.1L366.431 510.9C365.798 512.333 364.731 513.517 363.231 514.45C361.765 515.383 360.081 515.85 358.181 515.85ZM383.618 494.1L384.118 500.1L383.918 499.3C384.485 498.033 385.268 496.95 386.268 496.05C387.301 495.15 388.368 494.467 389.468 494C390.601 493.5 391.551 493.25 392.318 493.25L392.068 498.25C390.501 498.15 389.118 498.45 387.918 499.15C386.751 499.85 385.835 500.783 385.168 501.95C384.501 503.117 384.168 504.367 384.168 505.7V515H379.118V494.1H383.618ZM404.211 515.45C402.678 515.45 401.211 515.183 399.811 514.65C398.411 514.083 397.228 513.283 396.261 512.25L398.411 509.35C399.278 510.183 400.178 510.817 401.111 511.25C402.078 511.683 402.978 511.9 403.811 511.9C404.778 511.9 405.628 511.717 406.361 511.35C407.094 510.95 407.461 510.3 407.461 509.4C407.461 508.667 407.211 508.1 406.711 507.7C406.244 507.3 405.644 506.967 404.911 506.7C404.178 506.433 403.394 506.183 402.561 505.95C400.828 505.383 399.494 504.583 398.561 503.55C397.661 502.483 397.211 501.233 397.211 499.8C397.211 498.7 397.478 497.667 398.011 496.7C398.578 495.7 399.428 494.9 400.561 494.3C401.694 493.667 403.094 493.35 404.761 493.35C406.228 493.35 407.544 493.533 408.711 493.9C409.878 494.233 410.961 494.817 411.961 495.65L410.011 498.7C409.411 498.1 408.694 497.65 407.861 497.35C407.061 497.017 406.328 496.833 405.661 496.8C404.761 496.8 403.978 497.017 403.311 497.45C402.644 497.85 402.311 498.4 402.311 499.1C402.311 499.8 402.544 500.367 403.011 500.8C403.478 501.2 404.078 501.533 404.811 501.8C405.578 502.033 406.344 502.283 407.111 502.55C408.644 503.05 409.911 503.733 410.911 504.6C411.944 505.467 412.461 506.733 412.461 508.4C412.461 509.667 412.161 510.833 411.561 511.9C410.961 512.967 410.044 513.833 408.811 514.5C407.611 515.133 406.078 515.45 404.211 515.45ZM428.664 515.5C426.264 515.5 424.197 515.033 422.464 514.1C420.731 513.133 419.397 511.817 418.464 510.15C417.531 508.45 417.064 506.533 417.064 504.4C417.064 502.333 417.581 500.467 418.614 498.8C419.681 497.1 421.097 495.75 422.864 494.75C424.631 493.75 426.597 493.25 428.764 493.25C431.564 493.25 433.881 494.067 435.714 495.7C437.581 497.3 438.831 499.567 439.464 502.5L422.414 508.4L421.214 505.5L434.914 500.5L433.864 501.2C433.464 500.133 432.831 499.217 431.964 498.45C431.097 497.65 429.914 497.25 428.414 497.25C426.547 497.25 425.014 497.9 423.814 499.2C422.647 500.467 422.064 502.1 422.064 504.1C422.064 506.233 422.697 507.95 423.964 509.25C425.231 510.55 426.831 511.2 428.764 511.2C429.664 511.2 430.531 511.05 431.364 510.75C432.197 510.417 432.981 509.983 433.714 509.45L436.014 513.2C434.947 513.9 433.764 514.467 432.464 514.9C431.197 515.3 429.931 515.5 428.664 515.5ZM445.134 476.15H450.184V515H445.134V476.15ZM459.823 515V498.6H456.273V494.1H459.823V485.55C459.823 482.583 460.523 480.283 461.923 478.65C463.356 476.983 465.44 476.15 468.173 476.15C468.906 476.15 469.706 476.267 470.573 476.5C471.473 476.7 472.273 477.033 472.973 477.5L470.823 481.15C470.523 480.817 470.173 480.6 469.773 480.5C469.406 480.367 469.04 480.3 468.673 480.3C467.506 480.3 466.573 480.717 465.873 481.55C465.206 482.35 464.873 483.717 464.873 485.65V494.1H471.473V498.6H464.873V515H459.823Z" fill="white"/>
</svg>
